<?xml version="1.0" ?><svg height="300" id="svg2" version="1.1" viewBox="0 0 281.25 281.25" width="300" xml:space="preserve" xmlns="http://www.w3.org/2000/svg" xmlns:cc="http://creativecommons.org/ns#" xmlns:dc="http://purl.org/dc/elements/1.1/" xmlns:rdf="http://www.w3.org/1999/02/22-rdf-syntax-ns#" xmlns:svg="http://www.w3.org/2000/svg"><defs id="defs4"/><g id="layer1" transform="translate(6693.6064,-3106.6404)"><g id="g40707"><path d="m -6537.7043,3148.3079 c -3.8283,-0.054 -7.7768,0.7007 -11.3782,2.5653 -1.8304,0.9476 -3.5344,2.1723 -5.0171,3.6493 -1.9466,-1.3462 -4.1607,-2.3008 -6.524,-2.7741 -1.0134,-0.2028 -2.0367,-0.3165 -3.0579,-0.3387 -3.0637,-0.067 -6.1091,0.6717 -8.8257,2.1661 a 4.6875,4.6875 0 0 0 -0.1721,0.1172 4.6875,4.6875 0 0 0 -0.1208,0.059 4.6875,4.6875 0 0 0 -0.1172,0.1062 4.6875,4.6875 0 0 0 -0.9467,0.8514 4.6875,4.6875 0 0 0 -0.033,0.031 4.6875,4.6875 0 0 0 -0.6501,1.1297 4.6875,4.6875 0 0 0 -0.1025,0.2564 4.6875,4.6875 0 0 0 -0.2673,1.2543 4.6875,4.6875 0 0 0 0,0.194 4.6875,4.6875 0 0 0 0.1227,1.1683 4.6875,4.6875 0 0 0 0.048,0.2233 4.6875,4.6875 0 0 0 0.39,0.9742 4.6875,4.6875 0 0 0 0.1245,0.1831 4.6875,4.6875 0 0 0 0.051,0.1135 c 3.0196,4.6507 4.6552,10.2703 4.6014,15.8148 -0.057,5.8689 -2.0115,12.0823 -3.8946,18.7793 -1.8909,6.725 -3.73,14.275 -2.4042,22.218 1.4003,8.3892 6.3539,15.8959 13.429,20.5371 0.8273,3.3596 2.7183,6.2273 5.0079,8.4375 2.8035,2.7066 6.0623,4.4078 9.1315,5.7111 6.7958,2.8857 14.2725,4.4076 21.8133,3.9551 7.5592,-0.4534 15.0669,-2.9215 21.3007,-7.511 9.1618,-6.7452 14.0539,-16.4009 19.9328,-23.5693 3.0868,-3.764 6.575,-7.1326 10.448,-9.8475 3.0036,-2.1053 6.2714,-3.8423 9.6973,-5.1525 a 4.6875,4.6875 0 0 0 0.7233,-0.3608 4.6875,4.6875 0 0 0 0.1117,-0.073 4.6875,4.6875 0 0 0 0.7141,-0.553 4.6875,4.6875 0 0 0 0.062,-0.055 4.6875,4.6875 0 0 0 0.6043,-0.7398 4.6875,4.6875 0 0 0 0.084,-0.1318 4.6875,4.6875 0 0 0 0.6519,-1.7761 4.6875,4.6875 0 0 0 0.026,-0.1062 c 0.554,-4.3924 -0.5971,-8.8281 -3.2153,-12.3981 -2.3039,-3.1413 -5.5753,-5.3695 -9.2432,-6.4087 -0.243,-1.4781 -0.7016,-2.9357 -1.4044,-4.3213 -1.8753,-3.6966 -4.9768,-6.063 -7.956,-7.6867 -2.938,-1.6012 -5.7569,-2.5327 -8.1024,-3.5395 -3.3909,-1.4554 -6.9216,-3.4854 -10.9881,-5.2221 -3.1656,-1.3521 -6.7091,-2.5134 -10.5323,-2.8144 -1.9949,-3.9631 -4.9356,-7.415 -8.5638,-10.0067 -4.5341,-3.2386 -9.9894,-5.0298 -15.5603,-5.1086 z m -0.1337,9.3731 c 3.6217,0.051 7.2978,1.2588 10.2448,3.3637 1.448,1.0343 2.7449,2.3073 3.8379,3.7372 -1.543,0.5013 -3.0117,1.0624 -4.3744,1.6076 -1.6067,0.6429 -3.5844,1.4118 -5.5609,2.873 -2.0372,1.5061 -3.986,3.7302 -4.6491,6.8719 -0.6672,3.1604 0.2299,6.0169 1.5509,8.2453 1.281,2.1609 2.883,3.668 4.2334,4.8962 2.5604,2.3287 5.5587,4.7485 9.3714,6.2878 3.8943,1.5717 8.5676,2.1129 13.0005,0.2619 2.111,-0.8816 4.0739,-2.2861 5.5572,-4.2755 1.5004,-2.0119 2.4072,-4.4905 2.3456,-7.1869 -0.058,-2.4979 -0.9459,-4.863 -2.5452,-6.7822 -1.5995,-1.9195 -3.7663,-3.2211 -6.2128,-3.7281 a 4.6875,4.6875 0 0 0 -5.5407,3.6402 4.6875,4.6875 0 0 0 3.6383,5.5407 c 0.3174,0.066 0.7062,0.2986 0.9137,0.5475 0.2075,0.2491 0.366,0.6722 0.3735,0.9961 0.01,0.3634 -0.1596,0.9281 -0.4889,1.3696 -0.3461,0.4642 -0.9403,0.9309 -1.6534,1.2287 -1.5263,0.6374 -3.7835,0.5431 -5.8777,-0.3021 -2.1747,-0.8776 -4.3553,-2.5159 -6.5717,-4.5319 -1.167,-1.0613 -2.025,-1.9749 -2.4792,-2.7411 -0.4141,-0.6986 -0.477,-1.3599 -0.4413,-1.5289 0.036,-0.1719 0.3632,-0.7618 1.0492,-1.2689 0.7467,-0.552 1.9324,-1.0914 3.4699,-1.7066 3.0623,-1.2255 5.827,-2.1906 8.2818,-2.3547 2.9464,-0.197 6.2667,0.6806 9.6332,2.1185 3.3883,1.447 6.9153,3.473 10.9735,5.2148 2.8068,1.2048 5.3298,2.0748 7.3151,3.1568 1.944,1.0595 3.4199,2.3932 4.0814,3.6969 0.4945,0.9748 0.7039,2.2586 0.5401,3.4918 -0.1662,1.2516 -0.7129,2.5702 -1.549,3.7134 -1.6844,2.3032 -4.6689,4.0363 -8.0109,4.8779 -5.286,1.3313 -11.4513,0.6482 -18.0725,-0.1117 -6.9259,-0.7948 -14.8448,-1.6333 -22.6044,1.2726 -4.7043,1.7616 -8.6163,4.6786 -11.933,7.8186 -3.3067,3.1307 -6.0506,6.4862 -8.7213,9.5801 -1.729,2.0029 -3.7448,4.2227 -5.4217,7.0679 -0.3482,0.5907 -0.6743,1.2148 -0.9796,1.8585 -2.8366,-3.0601 -4.8401,-6.949 -5.5152,-10.9937 -0.9218,-5.5225 0.3782,-11.7172 2.1826,-18.1347 1.8122,-6.4451 4.1674,-13.445 4.2426,-21.2275 0.051,-5.2672 -1.0166,-10.4981 -3.0817,-15.3186 0.278,0.024 0.5547,0.063 0.824,0.1172 1.2763,0.2555 2.5346,0.8765 3.5797,1.7285 -0.5862,2.0919 -0.8114,4.2283 -0.7544,6.3025 0.085,3.0922 0.7674,6.0033 1.7047,8.6774 3.076,8.7763 9.4172,16.2184 17.5928,20.6506 a 4.6875,4.6875 0 0 0 6.3556,-1.8878 4.6875,4.6875 0 0 0 -1.8878,-6.3556 c -6.0644,-3.2877 -10.9312,-8.9991 -13.2129,-15.509 -0.7007,-1.9993 -1.1299,-3.9757 -1.181,-5.8337 -0.051,-1.842 0.2843,-3.6135 0.9759,-5.0428 0.8764,-1.8109 2.5346,-3.4468 4.5172,-4.4732 2.0088,-1.04 4.4457,-1.5512 6.9342,-1.5162 z m 61.8824,38.8349 c 1.2095,0.5734 2.2948,1.4223 3.0432,2.4426 0.6697,0.9133 1.1385,2.0301 1.3678,3.1842 -3.0262,1.377 -5.9241,3.0326 -8.6481,4.942 -4.6876,3.2859 -8.7767,7.2618 -12.3193,11.5815 -6.7294,8.2054 -11.3895,16.9223 -18.2392,21.9653 -4.6137,3.3968 -10.4168,5.345 -16.3037,5.6982 -5.9054,0.3543 -11.9859,-0.847 -17.5891,-3.2263 -2.5235,-1.0715 -4.7165,-2.3096 -6.2842,-3.8232 -1.5173,-1.4648 -2.4812,-3.3321 -2.5909,-4.9091 -0.098,-1.412 0.4272,-3.214 1.463,-4.9713 1.0583,-1.7958 2.6491,-3.6288 4.4403,-5.7037 2.77,-3.209 5.3299,-6.3053 8.0695,-8.899 2.73,-2.5846 5.6829,-4.6882 8.7762,-5.8465 5.1333,-1.9224 11.4948,-1.5109 18.2465,-0.7361 6.5396,0.7506 13.8743,1.7922 21.4343,-0.1117 4.9416,-1.2445 9.9261,-3.8439 13.2843,-8.4357 0.7149,-0.9774 1.3347,-2.0345 1.8494,-3.1512 z" id="path3318" style="color:#000000;fill:#dcac3e;fill-opacity:1;fill-rule:evenodd;stroke-linecap:round;stroke-linejoin:round"/><path d="m -6589.5396,3224.3058 c -2.7631,0.073 -5.5171,0.7305 -8.0622,1.9775 a 4.6875,4.6875 0 0 0 -0.01,0 c 0,0 -0.01,0 -0.011,0.01 a 4.6875,4.6875 0 0 0 -0.4962,0.3314 4.6875,4.6875 0 0 0 -0.5091,0.3369 4.6875,4.6875 0 0 0 -0.01,0.01 4.6875,4.6875 0 0 0 -0.8698,1.0364 4.6875,4.6875 0 0 0 -0.1904,0.3827 4.6875,4.6875 0 0 0 -0.3498,0.8697 4.6875,4.6875 0 0 0 -0.099,0.4889 4.6875,4.6875 0 0 0 -0.06,0.8606 4.6875,4.6875 0 0 0 0.033,0.5237 4.6875,4.6875 0 0 0 0.2179,0.8716 4.6875,4.6875 0 0 0 0.1446,0.4285 4.6875,4.6875 0 0 0 0.046,0.1373 4.6875,4.6875 0 0 0 0.6153,0.9228 4.6875,4.6875 0 0 0 0.053,0.086 c 2.5333,2.9168 5.0401,5.8556 7.5219,8.8165 1.9142,2.2837 3.79,4.551 5.5738,6.8463 1.7988,2.3148 3.7028,4.9578 6.2365,7.436 2.556,2.5 5.7819,4.8197 9.8218,5.83 2.8025,0.701 5.721,0.6694 8.4961,-0.053 -4.2219,7.719 -8.0452,15.6552 -11.4441,23.7708 -3.945,9.4197 -7.3009,19.0821 -10.0836,28.9068 -0.5809,-0.315 -1.1579,-0.6375 -1.734,-0.9613 1.0919,-1.8585 1.8802,-3.8936 2.3144,-6.0314 0.8533,-4.2015 0.3056,-8.5775 -1.5582,-12.4384 -2.4623,-5.101 -6.7496,-8.5337 -11.0229,-10.9406 -4.2312,-2.3833 -8.4704,-3.8537 -12.1729,-5.5041 -9.0463,-4.0326 -17.2914,-9.9102 -24.0527,-17.1478 a 4.6875,4.6875 0 0 0 -0.022,-0.018 4.6875,4.6875 0 0 0 -0.899,-0.7398 4.6875,4.6875 0 0 0 -0.042,-0.029 4.6875,4.6875 0 0 0 -0.1117,-0.073 4.6875,4.6875 0 0 0 -0.5603,-0.2326 4.6875,4.6875 0 0 0 -0.4943,-0.2032 4.6875,4.6875 0 0 0 -0.6354,-0.1081 4.6875,4.6875 0 0 0 -0.4981,-0.082 v 0 a 4.6875,4.6875 0 0 0 -0.073,0.01 4.6875,4.6875 0 0 0 -0.6427,0.062 4.6875,4.6875 0 0 0 -0.5695,0.075 4.6875,4.6875 0 0 0 -0.082,0.011 4.6875,4.6875 0 0 0 -0.4907,0.2032 4.6875,4.6875 0 0 0 -0.5731,0.2381 4.6875,4.6875 0 0 0 -0.4688,0.3369 4.6875,4.6875 0 0 0 -0.4577,0.3259 4.6875,4.6875 0 0 0 -0.044,0.057 4.6875,4.6875 0 0 0 -0.813,1.0235 c -0.013,0.022 -0.024,0.044 -0.037,0.066 a 4.6875,4.6875 0 0 0 -0.013,0.026 c -6.1919,10.7746 -6.941,24.2162 -1.9757,35.6103 4.9793,11.4261 15.3807,20.0487 27.5317,22.8241 6.8945,1.5747 14.1436,1.2572 20.8704,-0.8807 2.2542,1.3417 4.544,2.6228 6.8701,3.8361 -0.9813,4.0426 -1.8719,8.1085 -2.6532,12.1948 a 4.6875,4.6875 0 0 0 3.7225,5.484 4.6875,4.6875 0 0 0 5.484,-3.7244 c 3.18,-16.631 8.0948,-32.9343 14.6357,-48.5522 3.5351,-8.4412 7.553,-16.6794 12.0117,-24.6716 0.793,0.5505 1.6257,1.0341 2.4865,1.4575 -6.0106,10.3884 -11.1011,21.3077 -15.1739,32.5982 -0.6012,1.6666 -1.1789,3.3409 -1.7358,5.0226 a 4.6875,4.6875 0 0 0 -0.8936,2.0343 4.6875,4.6875 0 0 0 0.01,0.7599 c -3.4815,11.0489 -6.0278,22.392 -7.5659,33.8745 a 4.6875,4.6875 0 0 0 4.0228,5.268 4.6875,4.6875 0 0 0 5.2698,-4.0247 c 1.3572,-10.1322 3.5272,-20.1573 6.4746,-29.9469 3.418,0.4665 6.844,0.8846 10.2741,1.2506 2.5054,4.4662 5.9328,8.3912 10.0396,11.4716 5.0183,3.7641 10.9625,6.2035 17.179,7.044 9.1289,1.2345 18.5479,-1.0552 26.0925,-6.3409 7.5251,-5.2721 12.8816,-13.3159 14.8517,-22.2894 a 4.6875,4.6875 0 0 0 0.017,-0.07 4.6875,4.6875 0 0 0 0.015,-0.09 4.6875,4.6875 0 0 0 0.068,-0.4285 4.6875,4.6875 0 0 0 0,-0.044 4.6875,4.6875 0 0 0 -0.01,-0.976 4.6875,4.6875 0 0 0 0,-0.017 4.6875,4.6875 0 0 0 -0.3827,-1.3586 4.6875,4.6875 0 0 0 -0.026,-0.06 4.6875,4.6875 0 0 0 -0.7745,-1.1609 4.6875,4.6875 0 0 0 -0.057,-0.062 4.6875,4.6875 0 0 0 -1.0876,-0.8606 4.6875,4.6875 0 0 0 -0.073,-0.04 4.6875,4.6875 0 0 0 -1.2561,-0.4779 4.6875,4.6875 0 0 0 -0.042,0 4.6875,4.6875 0 0 0 -0.6665,-0.038 4.6875,4.6875 0 0 0 -0.7965,-0.033 4.6875,4.6875 0 0 0 -0.037,0 c -5.7085,0.6674 -11.58,0.141 -17.0783,-1.5326 -4.1341,-1.2584 -8.4424,-3.3323 -13.3557,-4.9988 -3.7085,-1.258 -7.8382,-2.275 -12.1765,-2.2064 -1.4461,0.023 -2.9159,0.1675 -4.4,0.4632 -4.4818,0.8931 -8.6082,3.1302 -11.7993,6.4014 -2.2769,2.3337 -4.0037,5.1352 -5.0977,8.1811 -2.1485,-0.2408 -4.2944,-0.5022 -6.438,-0.7836 0.088,-0.2483 0.1688,-0.4993 0.2582,-0.7471 4.2462,-11.7712 9.6571,-23.1199 16.1041,-33.8452 0.5593,-0.037 1.1166,-0.094 1.6699,-0.1795 1.1479,2.4264 2.7922,4.6093 4.8505,6.3849 3.3783,2.9145 7.6705,4.5745 12.1307,4.693 4.9046,0.1303 9.4524,-1.5851 13.1836,-4.1254 2.6724,-1.8195 4.5397,-3.6085 6.1725,-4.541 2.5092,-1.4331 5.7929,-1.8133 8.5639,-0.9942 a 4.6875,4.6875 0 0 0 0.01,0 4.6875,4.6875 0 0 0 1.137,0.1794 4.6875,4.6875 0 0 0 0.3278,-0.017 4.6875,4.6875 0 0 0 0.628,-0.033 4.6875,4.6875 0 0 0 0.3095,-0.066 4.6875,4.6875 0 0 0 0.029,-0.01 4.6875,4.6875 0 0 0 1.1316,-0.4358 4.6875,4.6875 0 0 0 0.01,-0.01 4.6875,4.6875 0 0 0 0.9815,-0.7141 4.6875,4.6875 0 0 0 0.01,-0.01 4.6875,4.6875 0 0 0 0.7489,-0.9247 4.6875,4.6875 0 0 0 0.026,-0.044 4.6875,4.6875 0 0 0 0.4761,-1.0712 4.6875,4.6875 0 0 0 0.01,-0.022 4.6875,4.6875 0 0 0 0.013,-0.051 4.6875,4.6875 0 0 0 0.081,-0.3333 4.6875,4.6875 0 0 0 0.02,-0.095 4.6875,4.6875 0 0 0 0.059,-0.423 4.6875,4.6875 0 0 0 0.02,-0.4303 4.6875,4.6875 0 0 0 -0.01,-0.108 4.6875,4.6875 0 0 0 -0.02,-0.3314 4.6875,4.6875 0 0 0 -0.015,-0.119 4.6875,4.6875 0 0 0 -0.024,-0.1941 c -0.01,-0.044 -0.018,-0.086 -0.026,-0.13 a 4.6875,4.6875 0 0 0 -0.017,-0.084 c -0.8322,-4.5864 -3.7627,-8.4887 -7.9504,-10.5578 -4.1597,-2.0553 -7.8699,-1.9346 -10.1093,-2.5287 -0.9094,-0.2413 -1.7825,-0.6334 -2.6276,-1.0858 -3.1097,1.853 -6.4519,3.2543 -9.9151,4.1839 2.764,2.8525 6.2645,4.9361 10.1385,5.9638 1.6852,0.447 3.1478,0.7042 4.4367,0.9265 -1.0642,0.3889 -2.1026,0.8615 -3.0982,1.4301 -3.0194,1.7245 -5.0426,3.7371 -6.7987,4.9328 -2.394,1.6299 -5.1547,2.5696 -7.6574,2.5031 -2.2396,-0.059 -4.5604,-0.959 -6.2568,-2.4225 -0.9345,-0.8062 -1.7194,-1.8271 -2.3071,-2.948 1.4992,-1.1316 2.8364,-2.4739 3.9533,-4.0027 1.2016,-1.6449 2.0931,-3.4776 2.7209,-5.3998 -1.1678,0.1682 -2.3388,0.3049 -3.5138,0.3754 -2.3695,0.1422 -4.7301,0.068 -7.0679,-0.1612 -0.9693,1.2019 -2.2348,2.208 -3.6364,2.8382 -1.5381,0.6915 -3.3087,0.9855 -4.9878,0.8258 -1.679,-0.1598 -3.3639,-0.7829 -4.7443,-1.7523 -1.8988,-1.3336 -3.3663,-3.4812 -3.9184,-5.7349 0,-0.01 0,-0.014 0,-0.02 -0.096,-0.3962 -0.1323,-0.8112 -0.1758,-1.2231 -2.2123,-1.1239 -4.4258,-2.5205 -6.4105,-4.4367 -0.7687,-0.742 -1.4869,-1.5641 -2.1405,-2.4481 -0.804,2.5517 -1.1026,5.2401 -0.8075,7.9047 -0.7505,0.7076 -1.6417,1.282 -2.5818,1.6424 -1.4601,0.5598 -3.1762,0.6651 -4.693,0.2857 -1.8307,-0.4579 -3.7726,-1.7039 -5.5426,-3.4351 -1.7924,-1.7532 -3.4745,-4.0239 -5.3888,-6.4874 -1.8995,-2.4441 -3.85,-4.8028 -5.7916,-7.1191 -0.6439,-0.7682 -1.2937,-1.531 -1.9409,-2.2962 0.8499,0.2172 1.6624,0.5375 2.395,0.9613 1.4645,0.8473 3.064,2.3445 5.0793,4.0833 2.0334,1.7544 4.5735,3.789 8.0695,4.7754 3.1583,0.8911 6.5042,0.6939 9.5361,-0.5622 0.3851,-0.1595 0.7607,-0.3368 1.128,-0.5273 -1.0359,-1.5617 -1.8588,-3.3047 -2.3291,-5.2149 -1.2113,-0.7945 -2.3554,-1.6786 -3.4351,-2.6312 -0.7861,0.1381 -1.6197,0.12 -2.3566,-0.088 -1.2566,-0.3546 -2.7842,-1.3776 -4.4897,-2.8491 -1.7237,-1.4872 -3.698,-3.4757 -6.5076,-5.1013 -2.8114,-1.6267 -5.9507,-2.4983 -9.115,-2.6056 -0.3955,-0.013 -0.7926,-0.016 -1.1883,-0.01 z m -43.5279,49.0851 c 6.5518,5.9306 14.0322,10.8224 22.11,14.4232 4.1688,1.8583 8.1116,3.2644 11.3892,5.1105 3.2357,1.8225 5.8955,4.1861 7.1796,6.8463 0.9508,1.9697 1.2482,4.3551 0.8129,6.4984 -0.2112,1.04 -0.6069,2.0625 -1.1425,3.0066 -2.0227,-1.3358 -4.0134,-2.7195 -5.9583,-4.1657 -6.5036,-4.8356 -12.5574,-10.2821 -18.056,-16.2359 a 4.6875,4.6875 0 0 0 -3.2575,-1.5015 4.6875,4.6875 0 0 0 -3.3654,1.2396 4.6875,4.6875 0 0 0 -0.2637,6.6248 c 5.8935,6.3814 12.3798,12.21 19.3506,17.3932 0.2044,0.152 0.4136,0.2977 0.6189,0.4486 -2.5017,0.06 -5.0078,-0.1787 -7.4323,-0.7324 -9.1117,-2.0812 -17.2923,-8.8617 -21.026,-17.4298 -2.9014,-6.658 -3.1727,-14.5431 -0.9595,-21.5259 z m 104.6009,24.8877 c 2.8169,-0.026 5.8988,0.6408 9.0143,1.6974 4.1851,1.4196 8.5785,3.549 13.6358,5.0885 4.4455,1.3531 9.0657,2.079 13.7036,2.1917 -2.05,4.2527 -5.1856,8.0176 -9.0179,10.7026 -5.5529,3.8904 -12.7378,5.6382 -19.4568,4.7296 -4.6065,-0.6229 -9.0914,-2.4622 -12.8101,-5.2515 -1.1516,-0.8638 -2.2269,-1.8329 -3.2318,-2.8729 0.777,0.055 1.5536,0.1129 2.331,0.1629 8.3858,0.5398 16.7923,0.7799 25.1953,0.7197 a 4.6875,4.6875 0 0 0 4.6527,-4.7205 4.6875,4.6875 0 0 0 -4.7223,-4.6545 c -8.1796,0.059 -16.3604,-0.1758 -24.5233,-0.7013 -2.1233,-0.1367 -4.2444,-0.2964 -6.3648,-0.4725 0.5483,-0.9444 1.202,-1.824 1.9538,-2.5946 1.8414,-1.8874 4.3333,-3.2402 6.9195,-3.7555 0.8716,-0.1736 1.782,-0.2605 2.721,-0.2691 z" id="path3338" style="color:#000000;fill:#3d3d3d;fill-opacity:1;fill-rule:evenodd;stroke-linecap:round;stroke-linejoin:round"/></g></g></svg>